<svg xmlns="http://www.w3.org/2000/svg" viewBox="0 0 520 420" role="img" aria-label="Anatomía esquemática de la rótula y tendón rotuliano"><rect width="520" height="420" rx="24" fill="#122a3e"/><defs><linearGradient id="bone" x2=".8" y2="1"><stop stop-color="#fff1db"/><stop offset=".55" stop-color="#b9cbd2"/><stop offset="1" stop-color="#648eab"/></linearGradient><linearGradient id="muscle" x2="1" y2="1"><stop stop-color="#ffb49c"/><stop offset=".55" stop-color="#db6074"/><stop offset="1" stop-color="#8c426f"/></linearGradient><linearGradient id="tendon" x2="1" y2="1"><stop stop-color="#ffe58b"/><stop offset="1" stop-color="#ff8c4e"/></linearGradient><filter id="shadow"><feDropShadow dx="0" dy="8" stdDeviation="7" flood-color="#000" flood-opacity=".4"/></filter></defs><circle cx="260" cy="180" r="160" fill="#20485b" opacity=".55"/><path d="M210 15 Q190 80 209 130 L211 153" stroke="url(#muscle)" stroke-width="110" fill="none" stroke-linecap="round"/><path d="M219 50L225 136" stroke="url(#tendon)" stroke-width="35" fill="none"/><path d="M204 141 Q228 121 250 149 Q265 173 249 208 Q228 233 202 211 Q187 187 204 141Z" fill="url(#bone)" stroke="#f3f4e9" stroke-width="4" filter="url(#shadow)"/><path d="M226 214 Q222 257 231 294" stroke="url(#tendon)" stroke-width="32" fill="none"/><path d="M196 297 Q229 275 259 298 L266 368 L194 368Z" fill="url(#bone)" stroke="#e5f0f0" stroke-width="4"/><circle cx="226" cy="231" r="13" fill="#ff6568" stroke="white" stroke-width="3"/><path d="M242 237L334 233L451 233" stroke="#8cf2eb" stroke-width="3" fill="none"/><text x="340" y="219" font-size="19" font-family="Arial" fill="white">Tendón rotuliano</text><path d="M249 171L332 135L436 135" stroke="#8cf2eb" stroke-width="3" fill="none"/><text x="342" y="122" font-size="19" font-family="Arial" fill="white">Rótula</text><rect x="20" y="368" width="480" height="35" rx="10" fill="#061e2d"/><text x="260" y="391" text-anchor="middle" font-family="Arial" font-size="16" fill="#c7f5f0">Ilustración anatómica conceptual · no a escala</text></svg>